<svg xmlns="http://www.w3.org/2000/svg" viewBox="0 0 1105.97 916.3"><defs><style>.cls-1{fill:#d1ae78;}.cls-2{fill:#bb8873;}.cls-3{fill:#b6abae;}.cls-4{fill:#c0ac82;}.cls-5{fill:#c2b59e;}.cls-6{fill:#b8a5a5;}.cls-7{fill:#60453a;}.cls-8{fill:#dcdfca;}.cls-9{fill:#542b30;}.cls-10{fill:#35271f;}.cls-11{fill:#e0dbd2;}.cls-12{fill:#745953;}.cls-13{fill:#886e5c;}.cls-14{fill:#947870;}.cls-15{fill:#745343;}.cls-16{fill:#c8ba96;}.cls-17{fill:#d5b6b0;}.cls-18{fill:#dee2cf;}.cls-19{fill:#d1b8a1;}.cls-20{fill:#edeee9;}.cls-21{fill:#deded5;}.cls-22{fill:#dfd6c3;}.cls-23{fill:#ded5bd;}.cls-24{fill:#e8e3db;}.cls-25{fill:none;stroke:#e84599;stroke-miterlimit:10;stroke-width:0.81px;}.cls-26{fill:#e0e2de;}.cls-27{fill:#f0f0ef;}.cls-28{fill:#d4d0d5;}.cls-29{fill:#c5b399;}.cls-30{fill:#c0b1a8;}.cls-31{fill:#beb597;}.cls-32{fill:#ceccb9;}.cls-33{fill:#e3e3de;}.cls-34{fill:#d0d3c8;}.cls-35{fill:#cdc4b8;}.cls-36{fill:#d0c6c3;}.cls-37{fill:#c6bdb3;}.cls-38{fill:#85675f;}.cls-39{fill:#746459;}.cls-40{fill:#534330;}.cls-41{fill:#4e4232;}.cls-42{fill:#6e5b49;}.cls-43{fill:#151211;}.cls-44{fill:#867076;}.cls-45{fill:#6c554e;}.cls-46{fill:#755d57;}.cls-47{fill:#bca8a6;}.cls-48{fill:#b7afba;}.cls-49{fill:#ddba97;}.cls-50{fill:#ded0ca;}.cls-51{fill:#6f5144;}.cls-52{fill:#997e6b;}.cls-53{fill:#7b5c4d;}.cls-54{fill:#835e53;}.cls-55{fill:#dcd5c5;}.cls-56{fill:#cdbc9d;}.cls-57{fill:#d6d4cf;}.cls-58{fill:#beb0a4;}.cls-59{fill:#dcdfd8;}.cls-60{fill:#c7c2b9;}.cls-61{fill:#423628;}.cls-62{fill:#ac9c9a;}.cls-63{fill:#64503f;}.cls-64{fill:#614e4c;}.cls-65{fill:#745247;}.cls-66{fill:#4c3b41;}.cls-67{fill:#332225;}.cls-68{fill:#5e4a39;}.cls-69{fill:#665d59;}.cls-70{fill:#605e53;}.cls-71{fill:#59494c;}.cls-72{fill:#524940;}.cls-73{fill:#817871;}.cls-74{fill:#74635e;}.cls-75{fill:#a0838d;}.cls-76{fill:#5f5543;}.cls-77{fill:#8b867a;}.cls-78{fill:#8e7976;}.cls-79{fill:#574946;}.cls-80{fill:#9d9390;}.cls-81{fill:#807f81;}.cls-82{fill:#4e4a44;}.cls-83{fill:#837377;}.cls-84{fill:#a3a48f;}.cls-85{fill:#8d8d85;}.cls-86{fill:#656164;}.cls-87{fill:#694e4f;}.cls-88{fill:#6a6769;}.cls-89{fill:#5a5b55;}.cls-90{fill:#2e3528;}.cls-91{fill:#2b2220;}.cls-92{fill:#74685e;}.cls-93{fill:#ac9080;}.cls-94{fill:#baaf9a;}.cls-95{fill:#d0c3bf;}.cls-96{fill:#bb9f8c;}.cls-97{fill:#c5aba8;}.cls-98{fill:#d0c9c7;}.cls-99{fill:#b4ad99;}.cls-100{fill:#cccec6;}.cls-101{fill:#a59789;}.cls-102{fill:#a68b91;}.cls-103{fill:#6c574b;}.cls-104{fill:#a38a8b;}.cls-105{fill:#686564;}.cls-106{fill:#afb2ab;}.cls-107{fill:#9b8184;}.cls-108{fill:#ab9e96;}.cls-109{fill:#bfbbb2;}.cls-110{fill:#d3d0cc;}.cls-111{fill:#bfc3b9;}.cls-112{fill:#e9e9e2;}.cls-113{fill:#e3e6db;}.cls-114{fill:#d9dcd6;}.cls-115{fill:#c4bdbd;}.cls-116{fill:#907a6e;}.cls-117{fill:#d4d5cc;}.cls-118{fill:#e1e3d9;}.cls-119{fill:#d3d4ce;}.cls-120{fill:#dde1da;}.cls-121{fill:#c07d92;}.cls-122{fill:#a78488;}.cls-123{fill:#a46f78;}.cls-124{fill:#c28690;}.cls-125{fill:#e3a0b2;}.cls-126{fill:#dda1af;}.cls-127{fill:#dfa6ae;}.cls-128{fill:#f0a7b6;}.cls-129{fill:#c57b84;}.cls-130{fill:#d28e9a;}.cls-131{fill:#8f6266;}.cls-132{fill:#d093a0;}.cls-133{fill:#c07c79;}.cls-134{fill:#90807a;}.cls-135{fill:#f28eba;}.cls-136{fill:#e9aeba;}.cls-137{fill:#ea9ca8;}.cls-138{fill:#c6727b;}.cls-139{fill:#d88d9a;}.cls-140{fill:#ea9bab;}.cls-141{fill:#d68087;}.cls-142{fill:#de8389;}.cls-143{fill:#cb6672;}.cls-144{fill:#240f10;}.cls-145{fill:#381815;}.cls-146{fill:#2f1616;}.cls-147{fill:#e59da9;}.cls-148{fill:#e993a2;}.cls-149{fill:#dc7c81;}.cls-150{fill:#321417;}.cls-151{fill:#7c2118;}.cls-152{fill:#130f0f;}.cls-153{fill:#36161a;}.cls-154{fill:#201818;}.cls-155{fill:#5f3648;}.cls-156{fill:#171010;}.cls-157{fill:#301419;}.cls-158{fill:#3e1317;}.cls-159{fill:#3e1315;}.cls-160{fill:#5c0d17;}.cls-161{fill:#771420;}.cls-162{fill:#9d3228;}.cls-163{fill:#af3a36;}.cls-164{fill:#952631;}.cls-165{fill:#972e37;}.cls-166{fill:#771723;}.cls-167{fill:#63151f;}.cls-168{fill:#631d26;}.cls-169{fill:#7e2d38;}.cls-170{fill:#3f1316;}.cls-171{fill:#2e201e;}.cls-172{fill:#715f5d;}.cls-173{fill:#6d3735;}.cls-174{fill:#8f6e6b;}.cls-175{fill:#b4a8aa;}.cls-176{fill:#907e75;}.cls-177{fill:#acab9a;}.cls-178{fill:#b0b2aa;}.cls-179{fill:#847265;}.cls-180{fill:#f5b0b0;}.cls-181{fill:#251213;}.cls-182{fill:#f58e96;}.cls-183{fill:#a7999e;}.cls-184{fill:#c1aaa2;}.cls-185{fill:#e0d8d1;}.cls-186{fill:#d4757d;}.cls-187{fill:#df888f;}.cls-188{fill:#c27c6d;}.cls-189{fill:#5f4941;}.cls-190{fill:#654447;}.cls-191{fill:#5d3d40;}.cls-192{fill:#855f67;}.cls-193{fill:#ba7b89;}.cls-194{fill:#885259;}.cls-195{fill:#572127;}.cls-196{fill:#342422;}.cls-197{fill:#2f1817;}.cls-198{fill:#1f1514;}.cls-199{fill:#312c24;}.cls-200{fill:#221c1a;}.cls-201{fill:#302624;}.cls-202{fill:#3a302f;}.cls-203{fill:#442924;}.cls-204{fill:#995558;}.cls-205{fill:#c9849c;}.cls-206{fill:#d8aaa0;}.cls-207{fill:#e4a5b4;}.cls-208{fill:#e89395;}.cls-209{fill:#472626;}.cls-210{fill:#a78f79;}.cls-211{fill:#3c2f2c;}.cls-212{fill:#37181d;}.cls-213{fill:#e3988b;}.cls-214{fill:#351f1f;}.cls-215{fill:#493a3d;}.cls-216{fill:#3a2e2f;}.cls-217{fill:#846c6c;}.cls-218{fill:#a3a591;}.cls-219{fill:#d2aa82;}.cls-220{fill:#6c4a48;}.cls-221{fill:#e49094;}.cls-222{fill:#231410;}.cls-223{fill:#9f5350;}.cls-224{fill:#8d787b;}.cls-225{fill:#d1a475;}.cls-226{fill:#a75a5f;}.cls-227{fill:#5c2528;}.cls-228{fill:#38271c;}.cls-229{fill:#91867f;}.cls-230{fill:#898772;}.cls-231{fill:#d0a36e;}.cls-232{fill:#c38453;}.cls-233{fill:#cb875a;}.cls-234{fill:#c88a5c;}.cls-235{fill:#dddbd4;}.cls-236{fill:#c9c6b3;}.cls-237{fill:#cd955e;}.cls-238{fill:#ca8a53;}.cls-239{fill:#f5f5ed;}.cls-240{fill:#d3b9ac;}.cls-241{fill:#b09473;}.cls-242{fill:#bdb295;}.cls-243{fill:#e5d9ca;}.cls-244{fill:#69544c;}.cls-245{fill:#c59a7f;}.cls-246{fill:#c9916f;}.cls-247{fill:#ca8c68;}.cls-248{fill:#b3753d;}.cls-249{fill:#d3ae81;}.cls-250{fill:#daba90;}.cls-251{fill:#d8caa7;}.cls-252{fill:#925e35;}.cls-253{fill:#cba16e;}.cls-254{fill:#7e4a2a;}.cls-255{fill:#a1744f;}.cls-256{fill:#7e442f;}.cls-257{fill:#76412c;}.cls-258{fill:#965b34;}.cls-259{fill:#bf8b5f;}.cls-260{fill:#aa7952;}.cls-261{fill:#98623a;}.cls-262{fill:#c49150;}.cls-263{fill:#7a4a2d;}.cls-264{fill:#845032;}.cls-265{fill:#7a472a;}.cls-266{fill:#89542c;}.cls-267{fill:#a66336;}.cls-268{fill:#935836;}.cls-269{fill:#c0835f;}.cls-270{fill:#c57d50;}.cls-271{fill:#c98f5d;}.cls-272{fill:#cf905b;}.cls-273{fill:#a76740;}.cls-274{fill:#ab6645;}.cls-275{fill:#bb6d45;}.cls-276{fill:#d49063;}.cls-277{fill:#ac6d42;}.cls-278{fill:#9c5c37;}.cls-279{fill:#a96235;}.cls-280{fill:#eff0e6;}.cls-281{fill:#a5896f;}.cls-282{fill:#c9946d;}.cls-283{fill:#ca7a4f;}.cls-284{fill:#b6713c;}.cls-285{fill:#5e523c;}.cls-286{fill:#c98356;}.cls-287{fill:#151411;}.cls-288{fill:#1a1912;}.cls-289{fill:#191815;}.cls-290{fill:#272720;}.cls-291{fill:#937d66;}.cls-292{fill:#85826a;}.cls-293{fill:#5f5941;}.cls-294{fill:#4e493a;}.cls-295{fill:#3f392c;}.cls-296{fill:#2b2b1f;}.cls-297{fill:#363324;}.cls-298{fill:#1e1b15;}.cls-299{fill:#27241f;}.cls-300{fill:#1d1c18;}.cls-301{fill:#39372b;}.cls-302{fill:#39332a;}.cls-303{fill:#4a423d;}.cls-304{fill:#726957;}.cls-305{fill:#88684c;}.cls-306{fill:#556a77;}.cls-307{fill:#6c8092;}.cls-308{fill:#a3887f;}.cls-309{fill:#647b8c;}.cls-310{fill:#a26e5e;}.cls-311{fill:#6a8093;}.cls-312{fill:#8b6b59;}.cls-313{fill:#a07d5c;}.cls-314{fill:#61585a;}.cls-315{fill:#86695b;}.cls-316{fill:#b57f5b;}.cls-317{fill:#c9c0b8;}.cls-318{fill:#ab774e;}.cls-319{fill:#c6b6b6;}.cls-320{fill:#cbb38c;}.cls-321{fill:#deba93;}.cls-322{fill:#c68f63;}.cls-323{fill:#bd966b;}.cls-324{fill:#d6ac8b;}.cls-325{fill:#b98752;}.cls-326{fill:#ae845a;}.cls-327{fill:#c3aa8b;}.cls-328{fill:#b49d80;}.cls-329{fill:#a88b65;}.cls-330{fill:#7e7972;}.cls-331{fill:#acb8bb;}.cls-332{fill:#7c97ad;}.cls-333{fill:#677a8c;}.cls-334{fill:#2c2b28;}.cls-335{fill:#38322a;}.cls-336{fill:#6d6559;}.cls-337{fill:#202019;}.cls-338{fill:#2d2e2c;}.cls-339{fill:#545354;}.cls-340{fill:#605d56;}.cls-341{fill:#181514;}.cls-342{fill:#2a2520;}.cls-343{fill:#181614;}.cls-344{fill:#312f2b;}.cls-345{fill:#171512;}.cls-346{fill:#24231f;}.cls-347{fill:#3f3d3c;}.cls-348{fill:#58636c;}.cls-349{fill:#667b87;}.cls-350{fill:#52616e;}.cls-351{fill:#495154;}.cls-352{fill:#383838;}.cls-353{fill:#617280;}.cls-354{fill:#697980;}.cls-355{fill:#6a838a;}.cls-356{fill:#2a2824;}.cls-357{fill:#211c18;}.cls-358{fill:#576a79;}.cls-359{fill:#607382;}.cls-360{fill:#5f7386;}.cls-361{fill:#69727a;}.cls-362{fill:#6d8194;}.cls-363{fill:#637885;}.cls-364{fill:#595e60;}.cls-365{fill:#6b767b;}.cls-366{fill:#c3c5b4;}.cls-367{fill:#b4b6b7;}.cls-368{fill:#dad5df;}.cls-369{fill:#dbd5c6;}.cls-370{fill:#5d5b5d;}.cls-371{fill:#c3b5a5;}.cls-372{fill:#776a61;}.cls-373{fill:#c3ac9f;}.cls-374{fill:#e6e4d3;}.cls-375{fill:#c0b9aa;}.cls-376{fill:#ecede0;}.cls-377{fill:#c5bfb4;}.cls-378{fill:#d5d5c5;}.cls-379{fill:#d0cec0;}.cls-380{fill:#d4d1c3;}.cls-381{fill:#e1e1d9;}.cls-382{fill:#e7e4db;}.cls-383{fill:#b5ae9c;}.cls-384{fill:#e5e5dc;}.cls-385{fill:#dedfd9;}.cls-386{fill:#ab7375;}.cls-387{fill:#cdcbb7;}.cls-388{fill:#b77579;}.cls-389{fill:#755f5d;}.cls-390{fill:#a9a1a0;}.cls-391{fill:#b96d6b;}.cls-392{fill:#af5853;}.cls-393{fill:#692f2f;}.cls-394{fill:#d7cac8;}.cls-395{fill:#848689;}.cls-396{fill:#e8f1f6;}.cls-397{fill:#abaeab;}.cls-398{fill:#b9bdad;}.cls-399{fill:#dcd4cc;}.cls-400{fill:#e3e4d3;}.cls-401{fill:#c4c3c0;}.cls-402{fill:#6a696a;}.cls-403{fill:#7e7e78;}.cls-404{fill:#d0d0c9;}.cls-405{fill:#dce1d7;}.cls-406{fill:#d4d7d4;}.cls-407{fill:#414340;}.cls-408{fill:#5a5b4f;}.cls-409{fill:#80797b;}.cls-410{fill:#8f9288;}.cls-411{fill:#a8afb0;}.cls-412{fill:#b4bcaa;}.cls-413{fill:#6a6061;}.cls-414{fill:#968879;}.cls-415{fill:#d9c8c3;}.cls-416{fill:#797571;}.cls-417{fill:#a5a698;}.cls-418{fill:#6a6e5e;}.cls-419{fill:#a9a799;}.cls-420{fill:#bab7b4;}.cls-421{fill:#afa09f;}.cls-422{fill:#c7cac6;}.cls-423{fill:#b5c1b4;}.cls-424{fill:#8a8b86;}.cls-425{fill:#aaa398;}.cls-426{fill:#a69e90;}.cls-427{fill:#7b7f69;}.cls-428{fill:#dbd7c5;}.cls-429{fill:#d4d1c8;}.cls-430{fill:#bab7a6;}.cls-431{fill:#bbbab0;}.cls-432{fill:#dfd1cb;}.cls-433{fill:#868579;}.cls-434{fill:#c6c2b5;}.cls-435{fill:#928f8b;}.cls-436{fill:#e1dfd9;}.cls-437{fill:#c8c1b2;}.cls-438{fill:#cec8b9;}.cls-439{fill:#d9cec6;}.cls-440{fill:#413f33;}.cls-441{fill:#4f534a;}.cls-442{fill:#504e52;}.cls-443{fill:#58534d;}.cls-444{fill:#ddd8cf;}.cls-445{fill:#e9ddd3;}.cls-446{fill:#e9e1d9;}.cls-447{fill:#eee8e4;}.cls-448{fill:#ddd3c8;}.cls-449{fill:#e8dfd7;}.cls-450{fill:#e7e4de;}.cls-451{fill:#d4c9c2;}.cls-452{fill:#e2dacf;}.cls-453{fill:#e5e4dc;}.cls-454{fill:#dddbcd;}.cls-455{fill:#652926;}.cls-456{fill:#62494a;}.cls-457{fill:#764344;}.cls-458{fill:#56372d;}.cls-459{fill:#b1b1a2;}.cls-460{fill:#aeada7;}.cls-461{fill:#53504f;}.cls-462{fill:#3d413d;}.cls-463{fill:#2a1f1f;}.cls-464{fill:#862732;}.cls-465{fill:#737060;}.cls-466{fill:#a8a5a3;}.cls-467{fill:#432128;}.cls-468{fill:#963940;}.cls-469{fill:#b0292e;}.cls-470{fill:#1f1314;}.cls-471{fill:#ac2e38;}.cls-472{fill:#812733;}.cls-473{fill:#502227;}.cls-474{fill:#33292a;}.cls-475{fill:#e6dfd8;}.cls-476{fill:#ece7e3;}.cls-477{fill:#e4e6db;}.cls-478{fill:#eeeae6;}.cls-479{fill:#e9e5dd;}.cls-480{fill:#d3d2cf;}.cls-481{fill:#6c2b31;}.cls-482{fill:#9d4c55;}.cls-483{fill:#78232f;}.cls-484{fill:#d0d0c8;}.cls-485{fill:#dbded5;}.cls-486{fill:#697d8e;}.cls-487{fill:#687580;}.cls-488{fill:#443f41;}.cls-489{fill:#332e2e;}.cls-490{fill:#423f3f;}.cls-491{fill:#737f88;}.cls-492{fill:#8b9aa0;}.cls-493{fill:#6b8390;}.cls-494{fill:#728188;}.cls-495{fill:#9ca1af;}.cls-496{fill:#687278;}.cls-497{fill:#483e43;}.cls-498{fill:#637280;}.cls-499{fill:#6c7379;}.cls-500{fill:#464241;}.cls-501{fill:#383434;}.cls-502{fill:#717f85;}.cls-503{fill:#667278;}.cls-504{fill:#585b5d;}.cls-505{fill:#312524;}.cls-506{fill:#697f88;}.cls-507{fill:#899192;}.cls-508{fill:#b4b4b2;}.cls-509{fill:#c0c3bf;}.cls-510{fill:#d3d7cf;}.cls-511{fill:#c2bbb4;}.cls-512{fill:#c7c8c3;}.cls-513{fill:#e3e2e1;}.cls-514{fill:#b3b6b2;}.cls-515{fill:#c3c2be;}.cls-516{fill:#9e9789;}.cls-517{fill:#555755;}.cls-518{fill:#717a7c;}.cls-519{fill:#454a4c;}.cls-520{fill:#525653;}.cls-521{fill:#58666c;}.cls-522{fill:#626e6e;}.cls-523{fill:#6d8595;}.cls-524{fill:#d4b6a0;}.cls-525{fill:#7c8694;}.cls-526{fill:#bbbcb4;}.cls-527{fill:#e3e6e4;}.cls-528{fill:#494f52;}.cls-529{fill:#565b63;}.cls-530{fill:#545f61;}.cls-531{fill:#404743;}.cls-532{fill:#1e1d14;}.cls-533{fill:#d5d4c8;}.cls-534{fill:#ecece6;}.cls-535{fill:#b2ae9f;}.cls-536{fill:#92938d;}.cls-537{fill:#b7b7ae;}.cls-538{fill:#a8a18a;}.cls-539{fill:#bebeb3;}.cls-540{fill:#505051;}.cls-541{fill:#cccccb;}.cls-542{fill:#e0e2dc;}.cls-543{fill:#ecefe8;}.cls-544{fill:#f2f4ed;}.cls-545{fill:#dcd5cc;}.cls-546{fill:#756859;}.cls-547{fill:#312622;}.cls-548{fill:#645e4c;}.cls-549{fill:#705d4f;}.cls-550{fill:#e3e0dd;}.cls-551{fill:#8c7d67;}.cls-552{fill:#433e3b;}.cls-553{fill:#362a27;}.cls-554{fill:#6d6765;}.cls-555{fill:#6c706b;}.cls-556{fill:#d1c2b3;}.cls-557{fill:#c8b6a7;}.cls-558{fill:#4f4c4b;}.cls-559{fill:#d2d2c1;}.cls-560{fill:#dcd5ce;}.cls-561{fill:#644c46;}.cls-562{fill:#595e5f;}.cls-563{fill:#7a7166;}.cls-564{fill:#ccc0b1;}.cls-565{fill:#ded5c2;}.cls-566{fill:#4e4f52;}.cls-567{fill:#80807e;}.cls-568{fill:#c3b8a7;}.cls-569{fill:#4b483d;}.cls-570{fill:#c1b4a5;}.cls-571{fill:#e3e3df;}.cls-572{fill:#dadcd5;}.cls-573{fill:#cac6c3;}.cls-574{fill:#d2d0c6;}.cls-575{fill:#b3a59a;}.cls-576{fill:#576264;}.cls-577{fill:#b9a08b;}.cls-578{fill:#cfc5c2;}.cls-579{fill:#57474b;}.cls-580{fill:#918584;}.cls-581{fill:#4e4249;}.cls-582{fill:#31221e;}.cls-583{fill:#514d49;}.cls-584{fill:#6e6561;}.cls-585{fill:#d3d2c9;}.cls-586{fill:#bebfb1;}.cls-587{fill:#c5c6b7;}.cls-588{fill:#d5d3c5;}.cls-589{fill:#d0cdbe;}.cls-590{fill:#c4c0ae;}.cls-591{fill:#b9b9a8;}.cls-592{fill:#bfbda3;}.cls-593{fill:#e3e5cb;}.cls-594{fill:#a4a4a2;}.cls-595{fill:#bec4b7;}.cls-596{fill:#717368;}.cls-597{fill:#b5b6a9;}.cls-598{fill:#817e74;}.cls-599{fill:#c2c3b3;}.cls-600{fill:#b9b8af;}.cls-601{fill:#bdbaae;}.cls-602{fill:#a8a695;}.cls-603{fill:#c7c0b5;}.cls-604{fill:#b1a99d;}.cls-605{fill:#c8c1bc;}.cls-606{fill:#acada4;}.cls-607{fill:#b7b99d;}.cls-608{fill:#b8bab0;}.cls-609{fill:#4e504c;}.cls-610{fill:#43292a;}.cls-611{fill:#4b221e;}.cls-612{fill:#522926;}.cls-613{fill:#3f1b21;}.cls-614{fill:#50292a;}.cls-615{fill:#442728;}.cls-616{fill:#462722;}.cls-617{fill:#57262a;}.cls-618{fill:#724743;}.cls-619{fill:#6d3b3a;}.cls-620{fill:#6b3334;}.cls-621{fill:#66272b;}.cls-622{fill:#191a11;}.cls-623{fill:#4b454e;}.cls-624{fill:#2a2e29;}.cls-625{fill:#74766b;}.cls-626{fill:#79786f;}.cls-627{fill:#58594e;}.cls-628{fill:#3b3938;}.cls-629{fill:#dddcd2;}.cls-630{fill:#c6cab1;}.cls-631{fill:#92958e;}.cls-632{fill:#beb599;}.cls-633{fill:#a9a98e;}.cls-634{fill:#989a97;}.cls-635{fill:#6e7377;}.cls-636{fill:#cbccc5;}.cls-637{fill:#b2b4b1;}.cls-638{fill:#878782;}.cls-639{fill:#6a6e73;}.cls-640{fill:#3e3e38;}.cls-641{fill:#bfb097;}.cls-642{fill:#c9c3b1;}.cls-643{fill:#dbdcd2;}.cls-644{fill:#e3e8d7;}.cls-645{fill:#6d534f;}.cls-646{fill:#ac9389;}.cls-647{fill:#3e3029;}.cls-648{fill:#564743;}.cls-649{fill:#7e6467;}.cls-650{fill:#dce1d8;}.cls-651{fill:#d1b9a3;}.cls-652{fill:#d9cfb4;}.cls-653{fill:#e67797;}.cls-654{fill:#8e5337;}.cls-655{fill:#3b3635;}.cls-656{fill:#bec3b4;}.cls-657{fill:#393a33;}.cls-658{fill:#c3a98a;}.cls-659{fill:#6a6b60;}</style></defs><title>dog4</title><g id="Layer_2" data-name="Layer 2"><g id="Lines"><polygon class="cls-1" points="231.25 14.01 173.31 49.99 172.6 83.72 231.25 14.01"/><polyline class="cls-2" points="231.25 14.01 181.13 96.73 172.6 83.72"/><polygon class="cls-3" points="173.31 49.99 158.78 60.28 167.52 60.01 173.31 49.99"/><polyline class="cls-4" points="156.46 78.71 161.66 89.6 172.6 83.72 156.46 78.71"/><polyline class="cls-5" points="155.91 87.4 156.22 97.87 170.79 92.94"/><polyline class="cls-6" points="156.22 97.87 161.05 103.54 170.79 92.94"/><polyline class="cls-7" points="161.05 103.54 166.81 103.39 165.64 98.52"/><polyline class="cls-8" points="161.05 103.54 164.52 107.39 166.81 103.39"/><polyline class="cls-9" points="166.81 103.39 168.63 111.75 164.53 107.3"/><polyline class="cls-10" points="170.79 92.94 168.63 111.75 177.36 101.44 170.79 92.94"/><polygon class="cls-11" points="156.22 97.87 145.05 113.04 155.38 115.21 156.22 97.87"/><polygon class="cls-12" points="168.63 111.75 155.38 115.21 159.02 121.46 168.63 111.75"/><polygon class="cls-13" points="187.49 110.29 168.63 111.75 174.83 119.66 187.49 110.29"/><polyline class="cls-14" points="168.63 111.75 167.5 125.08 174.83 119.66"/><polyline class="cls-15" points="167.5 125.08 161.93 129.21 168.63 111.75"/><polygon class="cls-16" points="159.02 121.46 161.93 129.21 144.16 140.39 159.02 121.46"/><polyline class="cls-17" points="159.02 121.46 148.93 121.41 155.38 115.21"/><polygon class="cls-18" points="148.93 121.41 145.05 113.04 137.46 128.53 148.93 121.41"/><polyline class="cls-19" points="148.93 121.41 144.16 140.39 137.46 128.53"/><polyline class="cls-20" points="145.05 113.04 118.94 129.74 137.46 128.53"/><polygon class="cls-21" points="118.94 129.74 144.16 140.39 93.84 163.01 118.94 129.74"/><polyline class="cls-22" points="128.99 147.21 139.66 167.9 142.51 151.83"/><polyline class="cls-23" points="144.16 140.39 142.51 151.83 128.99 147.21"/><polyline class="cls-24" points="139.66 167.9 166.66 165.13 144.16 140.39"/><path class="cls-25" d="M101.13,198.48"/><polyline class="cls-26" points="139.66 167.9 211.56 213.51 166.66 165.13"/><polyline class="cls-27" points="139.66 167.9 122.52 229.75 211.56 213.51"/><polygon class="cls-28" points="83.73 139.73 59.74 145.48 72.55 146.42 83.73 139.73"/><polygon class="cls-29" points="59.74 145.48 65.5 158.81 39.83 161.17 59.74 145.48"/><polyline class="cls-30" points="59.74 145.48 14.57 162.75 39.83 161.17"/><polyline class="cls-31" points="84.97 148.53 65.5 158.81 72.55 146.42 84.97 148.53"/><polyline class="cls-32" points="84.97 148.53 118.94 129.74 83.73 139.73 84.84 148.06"/><polyline class="cls-33" points="101.14 198.48 139.66 167.9 93.84 163.01"/><polyline class="cls-34" points="63.09 161.92 74.5 178.07 39.83 161.17"/><path class="cls-25" d="M77.29,162.59"/><path class="cls-25" d="M74.5,178.07"/><polyline class="cls-35" points="74.5 178.07 101.14 198.48 75.35 213.21 74.5 178.07"/><polygon class="cls-36" points="122.52 229.75 101.14 198.48 100.59 222.06 122.52 229.75"/><polyline class="cls-37" points="122.52 229.75 75.35 213.21 87.73 250.06 122.52 229.75"/><polygon class="cls-38" points="14.57 162.75 0.35 174.88 15.1 186.73 14.57 162.75"/><polyline class="cls-39" points="0.35 174.88 0 184.31 10.76 183.24"/><polyline class="cls-40" points="0 184.31 0.63 190.25 2.91 184.01"/><polyline class="cls-41" points="2.91 184.01 5.85 187.95 10.76 183.24"/><polygon class="cls-42" points="0.63 190.25 5.85 187.95 2.57 195.96 0.63 190.25"/><polygon class="cls-43" points="12.57 195.11 5.85 187.95 8.79 196.61 12.57 195.11"/><polygon class="cls-44" points="2.57 195.96 8.81 196.58 8.19 204.81 2.57 195.96"/><polyline class="cls-45" points="8.86 185.06 12.57 195.11 15.1 186.73 8.86 185.06"/><polyline class="cls-46" points="15.1 186.73 25.35 179.03 14.57 162.75 24.8 171.12 25.35 179.03"/><polygon class="cls-47" points="151.66 60.51 167.52 60.01 159.38 73.73 151.66 60.51"/><polyline class="cls-48" points="155.85 67.68 156.46 78.71 159.38 73.73"/><polyline class="cls-49" points="161.66 89.6 181.13 96.73 172.6 83.72"/><polyline class="cls-50" points="156.46 78.71 155.91 87.4 161.66 89.6"/><polygon class="cls-51" points="170.79 92.94 165.64 98.52 168.63 111.75 170.79 92.94"/><polygon class="cls-52" points="170.79 92.94 177.36 101.44 181.13 96.73 170.79 92.94"/><polygon class="cls-53" points="168.63 111.75 159.02 121.46 161.93 129.21 168.63 111.75"/><polygon class="cls-54" points="156.22 97.87 155.38 115.21 168.63 111.75 156.22 97.87"/><polygon class="cls-55" points="145.05 113.04 148.93 121.41 155.38 115.21 145.05 113.04"/><polyline class="cls-56" points="118.94 129.74 144.16 140.39 137.46 128.53"/><polygon class="cls-57" points="39.83 161.17 65.5 158.81 93.84 163.01 39.83 161.17"/><polyline class="cls-58" points="74.5 178.07 93.84 163.01 63.09 161.92"/><polyline class="cls-59" points="93.84 163.01 101.14 198.48 74.5 178.07"/><polygon class="cls-60" points="75.35 213.21 101.14 198.48 100.59 222.06 75.35 213.21"/><polygon class="cls-61" points="2.91 184.01 0.63 190.25 5.85 187.95 2.91 184.01"/><polygon class="cls-62" points="10.76 183.24 8.86 185.06 15.1 186.73 10.76 183.24"/><polygon class="cls-63" points="5.85 187.95 2.57 195.96 8.81 196.58 5.85 187.95"/><polyline class="cls-64" points="25.35 179.03 19.7 196.7 15.1 186.73"/><polyline class="cls-65" points="12.57 195.11 21.89 201.47 15.1 186.73"/><polyline class="cls-66" points="25.35 179.03 26.61 192.48 19.7 196.7"/><polyline class="cls-67" points="8.81 196.58 13.3 199.82 12.6 195.1"/><polyline class="cls-68" points="12.6 195.1 13.3 199.82 21.89 201.47"/><polyline class="cls-69" points="8.81 196.58 13.3 199.82 8.19 204.81"/><polyline class="cls-70" points="13.3 199.83 18.33 207 8.19 204.81"/><polyline class="cls-71" points="13.3 199.83 21.89 201.47 18.33 207"/><polyline class="cls-72" points="8.19 204.81 16.38 217.7 18.33 207"/><polyline class="cls-73" points="18.33 207 25.69 215.81 16.38 217.7"/><polyline class="cls-74" points="18.33 207 29.79 206.83 25.69 215.81"/><polyline class="cls-75" points="21.89 201.47 29.79 206.83 27.42 199.49"/><polyline class="cls-76" points="21.89 201.47 27.42 199.49 23.85 196.63"/><polyline class="cls-77" points="19.7 196.7 23.85 196.63 21.89 201.47"/><polyline class="cls-78" points="23.85 196.63 26.61 192.48 29.26 195.41"/><polyline class="cls-79" points="23.85 196.63 29.26 195.41 27.42 199.49"/><polyline class="cls-80" points="27.42 199.49 31.91 202.18 29.26 195.41"/><polyline class="cls-81" points="26.61 192.48 31.13 191.26 29.26 195.41"/><polyline class="cls-82" points="29.26 195.41 33.33 192.16 31.13 191.26"/><polyline class="cls-79" points="33.33 192.16 32.36 188.46 31.13 191.26"/><polyline class="cls-83" points="31.13 191.26 25.75 184.54 26.61 192.48"/><polygon class="cls-84" points="32.36 188.46 28.95 188.54 31.13 191.26 32.36 188.46"/><polygon class="cls-85" points="28.95 188.54 34.43 183.98 32.36 188.46 28.95 188.54"/><polyline class="cls-86" points="34.43 183.98 25.75 184.54 28.95 188.54"/><polyline class="cls-87" points="39.83 161.17 35.74 180.21 14.57 162.75"/><polygon class="cls-88" points="25.75 184.54 39.84 183.63 24.8 171.12 25.75 184.54"/><polyline class="cls-89" points="39.84 183.63 37.78 188.6 34.43 183.98"/><polygon class="cls-90" points="34.43 183.98 32.36 188.46 37.78 188.6 34.43 183.98"/><polygon class="cls-91" points="32.36 188.46 33.33 192.16 37.78 188.6 32.36 188.46"/><polygon class="cls-92" points="35.74 180.21 37.43 172.36 39.84 183.63 35.74 180.21"/><polyline class="cls-93" points="39.83 161.17 48.47 171.35 37.43 172.36"/><polyline class="cls-94" points="39.83 161.17 60.55 185.59 74.5 178.07"/><polyline class="cls-95" points="60.55 185.59 75.06 201.25 74.5 178.07"/><polygon class="cls-96" points="48.47 171.35 39.84 183.63 75.06 201.25 48.47 171.35"/><polygon class="cls-97" points="39.84 183.63 37.78 188.6 75.06 201.25 39.84 183.63"/><polygon class="cls-98" points="37.78 188.6 75.35 213.21 75.06 201.25 37.78 188.6"/><polygon class="cls-99" points="75.35 213.21 33.23 193.46 37.78 188.6 75.35 213.21"/><polygon class="cls-100" points="75.35 213.21 56.64 232.72 47.23 200.03 75.35 213.21"/><polygon class="cls-101" points="47.23 200.03 33.23 193.46 31.91 202.18 47.23 200.03"/><polygon class="cls-102" points="29.26 195.41 33.23 193.46 31.91 202.18 29.26 195.41"/><polygon class="cls-103" points="31.91 202.18 29.79 206.83 27.42 199.49 31.91 202.18"/><polygon class="cls-104" points="31.91 202.18 25.69 215.81 47.23 200.03 31.91 202.18"/><polyline class="cls-105" points="16.38 217.7 22.31 228.76 25.69 215.81"/><polyline class="cls-106" points="22.31 228.76 36.23 245.37 25.69 215.81"/><polygon class="cls-107" points="25.69 215.81 48.56 204.63 47.23 200.03 25.69 215.81"/><polygon class="cls-108" points="25.69 215.81 36.23 245.37 48.56 204.63 47.67 205.07 25.69 215.81"/><polygon class="cls-109" points="48.56 204.63 64.61 259.52 36.23 245.37 48.56 204.63"/><polygon class="cls-110" points="75.35 213.21 93.46 267.12 56.64 232.72 75.35 213.21"/><polyline class="cls-111" points="56.64 232.72 64.61 259.52 93.46 267.12"/><polygon class="cls-112" points="122.52 229.75 157.22 263.21 161.15 222.47 122.52 229.75"/><polyline class="cls-113" points="161.15 222.47 197.07 246.79 211.56 213.51"/><polyline class="cls-114" points="161.15 222.47 157.22 263.21 197.07 246.79"/><polygon class="cls-115" points="122.52 229.75 130.13 237.09 120.49 241.29 122.52 229.75"/><polygon class="cls-116" points="122.52 229.75 87.73 250.06 120.49 241.29 122.52 229.75"/><polygon class="cls-117" points="120.49 241.29 93.46 267.12 87.73 250.06 120.49 241.29"/><polygon class="cls-118" points="120.49 241.29 130.13 237.09 157.22 263.21 120.49 241.29"/><polyline class="cls-119" points="120.49 241.29 131.46 273.31 157.22 263.21"/><polygon class="cls-120" points="120.49 241.29 93.46 267.12 131.46 273.31 120.49 241.29"/><polyline class="cls-121" points="99.57 268.11 92.5 271.44 101.17 276.02"/><path class="cls-122" d="M99.57,268.11c0,.2,1.6,7.9,1.6,7.9l9.21-6.14"/><polyline class="cls-123" points="110.39 269.88 109.06 280.06 124.72 272.21"/><polyline class="cls-124" points="110.39 269.88 101.17 276.02 109.06 280.06"/><polyline class="cls-125" points="92.5 271.44 87.05 278.36 101.17 276.02"/><polyline class="cls-126" points="109.06 280.06 91.48 286.66 101.17 276.02"/><polygon class="cls-127" points="87.05 278.36 91.48 286.66 101.17 276.02 87.05 278.36"/><polyline class="cls-128" points="87.05 278.36 81.95 286.95 91.48 286.66"/><polyline class="cls-129" points="91.48 286.66 102.42 288.08 109.06 280.06"/><polyline class="cls-130" points="102.42 288.08 114.25 288.7 109.06 280.06"/><polygon class="cls-131" points="109.06 280.06 144.09 275 124.72 272.21 109.06 280.06"/><polygon class="cls-132" points="109.06 280.06 114.25 288.7 144.09 275 109.06 280.06"/><polygon class="cls-133" points="114.25 288.7 144.09 275 124.48 289.22 114.25 288.7"/><polygon class="cls-134" points="157.22 263.21 144.09 275 131.46 273.31 157.22 263.21"/><polygon class="cls-135" points="81.95 286.95 74.48 302.38 85.94 286.83 81.95 286.95"/><polyline class="cls-136" points="91.48 286.66 84.05 295.11 85.94 286.83"/><polygon class="cls-137" points="85.94 286.83 74.48 302.38 84.05 295.11 85.94 286.83"/><polyline class="cls-138" points="91.48 286.66 91.64 293.15 102.42 288.08"/><polygon class="cls-139" points="88.14 290.46 91.64 293.15 91.48 286.66 88.14 290.46"/><polygon class="cls-140" points="84.05 295.11 80.63 305.83 74.48 302.38 84.05 295.11"/><polygon class="cls-141" points="84.05 295.11 87.52 301.14 80.63 305.83 84.05 295.11"/><polyline class="cls-142" points="84.05 295.11 88.14 290.46 87.52 301.14"/><polyline class="cls-143" points="88.14 290.46 91.64 293.15 87.52 301.14"/><polygon class="cls-144" points="91.64 293.15 96.88 299.22 103.64 297.25 91.64 293.15"/><polygon class="cls-145" points="102.42 288.08 103.64 297.25 91.64 293.15 102.42 288.08"/><polygon class="cls-146" points="91.64 293.15 96.88 299.22 87.52 301.14 91.64 293.15"/><polygon class="cls-147" points="74.48 302.38 80.63 305.83 70.04 313.48 74.48 302.38"/><polygon class="cls-148" points="70.04 313.48 72.75 324.36 76.21 308.84 70.04 313.48"/><polygon class="cls-149" points="76.21 308.84 75.42 312.08 87.52 301.14 76.21 308.84"/><polyline class="cls-150" points="87.52 301.14 86.3 314.98 81.81 306.3"/><polygon class="cls-151" points="81.81 306.3 76.97 321.05 75.42 312.08 81.81 306.3"/><polygon class="cls-152" points="87.52 301.14 96.88 299.22 105.07 307.97 87.52 301.14"/><polygon class="cls-153" points="96.88 299.22 103.64 297.25 105.07 307.97 96.88 299.22"/><polygon class="cls-154" points="87.52 301.14 86.3 314.98 105.07 307.97 87.52 301.14"/><polygon class="cls-155" points="105.07 307.97 94.63 326.21 97.98 310.58 105.07 307.97"/><polygon class="cls-156" points="86.3 314.98 94.63 326.21 97.98 310.58 86.3 314.98"/><polygon class="cls-157" points="86.3 314.98 87.93 317.18 83.01 318.65 86.3 314.98"/><polyline class="cls-158" points="81.81 306.3 83.01 318.65 86.3 314.98"/><polyline class="cls-159" points="81.81 306.3 78.61 316.04 83.01 318.65"/><polyline class="cls-160" points="78.61 316.04 80.1 319.52 83.01 318.65"/><polyline class="cls-161" points="78.61 316.04 80.1 319.52 76.97 321.05"/><polyline class="cls-162" points="75.42 312.08 76.97 321.05 74.12 318.2"/><polygon class="cls-163" points="74.12 318.2 77.17 327.03 72.75 324.36 74.12 318.2"/><polyline class="cls-164" points="74.12 318.2 79.28 323.32 77.17 327.03"/><polygon class="cls-165" points="77.17 327.03 83.46 327.54 79.28 323.32 77.17 327.03"/><path class="cls-166" d="M77,321l3.13-1.53s.41,5.18.41,5.08S77,321,77,321Z"/><polygon class="cls-167" points="80.1 319.52 85.68 322.38 80.52 324.6 80.1 319.52"/><polygon class="cls-168" points="80.52 324.6 84.43 325.28 85.68 322.38 80.52 324.6"/><polygon class="cls-169" points="80.52 324.6 83.46 327.54 84.43 325.28 80.52 324.6"/><polygon class="cls-170" points="80.1 319.52 87.93 317.18 85.68 322.38 80.1 319.52"/><polygon class="cls-171" points="87.93 317.18 83.46 327.54 94.63 326.21 87.93 317.18"/><polygon class="cls-172" points="83.46 327.54 94.34 334.87 94.63 326.21 83.46 327.54"/><polygon class="cls-173" points="105.07 307.97 102.42 288.08 124.48 289.22 105.07 307.97"/><polyline class="cls-174" points="105.07 307.97 121.89 313.49 94.63 326.21"/><polyline class="cls-175" points="94.34 334.87 106.01 341.11 94.63 326.21"/><polyline class="cls-176" points="94.63 326.21 106.01 341.11 121.89 313.49"/><polyline class="cls-177" points="106.01 341.11 121.29 340.69 121.89 313.49"/><polygon class="cls-178" points="121.29 340.69 126.09 345.38 133.11 313.99 121.29 340.69"/><polygon class="cls-179" points="121.89 313.49 121.29 340.69 133.11 313.99 121.89 313.49"/><polyline class="cls-180" points="124.48 289.22 121.89 313.49 105.07 307.97"/><polyline class="cls-181" points="124.48 289.22 140.14 289.6 139.79 278.12"/><polygon class="cls-182" points="124.48 289.22 133.11 313.99 140.14 289.6 124.48 289.22"/><polyline class="cls-183" points="126.09 345.38 155.71 343.09 133.11 313.99"/><polyline class="cls-184" points="133.11 313.99 180.2 314.77 155.71 343.09"/><polyline class="cls-185" points="155.71 343.09 218.45 319.48 180.2 314.77"/><path class="cls-186" d="M133.11,314c.14-.41,1.44-5,1.44-5l14.08,5.25L133.11,314"/><polyline class="cls-187" points="136.41 302.57 155.42 301.9 134.55 309"/><polyline class="cls-188" points="134.55 309 148.63 314.25 155.42 301.9"/><polyline class="cls-189" points="148.63 314.25 161.64 314.46 155.42 301.9"/><polyline class="cls-190" points="155.42 301.9 161.29 297.81 161.64 314.46"/><polygon class="cls-191" points="171.03 298.5 161.64 314.46 180.2 314.77 171.03 298.5"/><polyline class="cls-192" points="161.64 314.46 161.29 297.81 171.03 298.5"/><polyline class="cls-193" points="136.41 302.57 150.47 294.04 155.42 301.9"/><polyline class="cls-194" points="136.41 302.57 140.14 289.6 150.47 294.04"/><polyline class="cls-195" points="140.14 289.6 159.35 278.88 150.47 294.04"/><polygon class="cls-196" points="159.35 278.88 139.79 278.12 144.09 275 159.35 278.88"/><polygon class="cls-197" points="140.14 289.6 139.79 278.12 159.35 278.88 140.14 289.6"/><polyline class="cls-198" points="159.35 278.88 152.74 267.24 144.09 275"/><polygon class="cls-199" points="157.22 263.21 159.35 278.88 152.74 267.24 157.22 263.21"/><polyline class="cls-200" points="170.62 258.03 159.35 278.88 157.22 263.21"/><polyline class="cls-201" points="170.62 258.03 176.61 262.84 165.74 266.75"/><polyline class="cls-202" points="176.61 262.84 181.07 266.43 165.74 266.75"/><polygon class="cls-203" points="165.74 266.75 159.35 278.88 181.07 266.43 165.74 266.75"/><polyline class="cls-204" points="159.35 278.88 187.14 292.63 181.07 266.43"/><polygon class="cls-205" points="159.35 278.88 150.47 294.04 155.42 301.9 159.35 278.88"/><polygon class="cls-206" points="159.35 278.88 155.42 301.9 161.29 297.81 159.35 278.88"/><polyline class="cls-207" points="159.35 278.88 171.03 298.5 161.29 297.81"/><polyline class="cls-208" points="159.35 278.88 187.14 292.63 171.03 298.5"/><polygon class="cls-209" points="171.03 298.5 177.54 310.07 178.59 302.29 171.03 298.5"/><polyline class="cls-210" points="171.03 298.5 179.52 295.4 178.59 302.29"/><path class="cls-211" d="M180.2,314.77c.14-.14,3.84-16.26,3.84-16.26l-6.51,11.56Z"/><polygon class="cls-212" points="179.52 295.4 184.04 298.5 177.54 310.07 179.52 295.4"/><polygon class="cls-213" points="179.52 295.4 187.14 292.63 184.04 298.5 179.52 295.4"/><polygon class="cls-214" points="187.14 292.63 184.04 298.5 194.19 299.16 187.14 292.63"/><polygon class="cls-215" points="184.04 298.5 180.2 314.77 194.19 299.16 184.04 298.5"/><polyline class="cls-216" points="194.19 299.16 198.57 316.87 180.2 314.77"/><polyline class="cls-217" points="194.19 299.16 208.78 310.76 198.57 316.87"/><polyline class="cls-218" points="208.78 310.76 218.45 319.48 198.57 316.87"/><polyline class="cls-219" points="208.69 310.76 225.8 325.44 228.22 303.86"/><polyline class="cls-220" points="187.14 292.63 200.89 286.89 194.19 299.16"/><polyline class="cls-221" points="181.07 266.43 200.89 286.89 187.14 292.63"/><polyline class="cls-222" points="170.62 258.03 181.07 266.43 185.9 251.4"/><polyline class="cls-223" points="181.07 266.43 192.34 253.87 200.89 286.89"/><polygon class="cls-224" points="194.19 299.16 208.78 310.76 207.22 275.27 194.19 299.16"/><polygon class="cls-225" points="208.78 310.76 228.22 303.86 206.27 253.48 208.78 310.76"/><polygon class="cls-226" points="207.22 275.27 192.34 253.87 200.89 286.89 207.22 275.27"/><polyline class="cls-227" points="207.22 275.27 206.27 253.48 192.34 253.87"/><polygon class="cls-228" points="192.34 253.87 181.07 266.43 185.02 254.08 192.34 253.87"/><polygon class="cls-229" points="185.9 251.4 206.27 253.48 185.02 254.08 185.9 251.4"/><polygon class="cls-230" points="185.9 251.4 197.07 246.79 206.27 253.48 185.9 251.4"/><polyline class="cls-231" points="225.89 325.44 251.87 312.67 228.22 303.86"/><polyline class="cls-232" points="206.27 253.48 251.05 265.93 228.22 303.86"/><polyline class="cls-233" points="251.05 265.93 251.87 312.67 228.22 303.86"/><polyline class="cls-234" points="206.27 253.48 265.63 230.18 251.05 265.93"/><polyline class="cls-235" points="211.56 213.51 209.43 245.85 197.07 246.79"/><polyline class="cls-236" points="197.07 246.79 209.43 245.85 206.27 253.48"/><polyline class="cls-232" points="206.27 253.48 209.43 245.85 217.67 249.16"/><polyline class="cls-237" points="209.43 245.85 241.42 239.65 217.67 249.16"/><polyline class="cls-238" points="209.43 245.85 216.16 143.83 241.42 239.65"/><polyline class="cls-239" points="211.56 213.51 216.16 143.83 144.16 140.39"/><polyline class="cls-240" points="144.16 140.39 161.93 129.21 172.72 141.97"/><polyline class="cls-241" points="172.72 141.97 187.49 110.29 161.93 129.21"/><polyline class="cls-242" points="172.72 141.97 212.65 129.75 187.49 110.29"/><polyline class="cls-243" points="216.16 143.83 212.65 129.75 172.72 141.97"/><polyline class="cls-244" points="181.13 96.73 187.49 110.29 168.63 111.75"/><polyline class="cls-245" points="231.25 14.01 187.49 110.29 181.13 96.73"/><polyline class="cls-246" points="231.25 14.01 238.97 87.48 187.49 110.29"/><polyline class="cls-247" points="231.25 14.01 261.44 55.44 238.97 87.48"/><polyline class="cls-248" points="231.25 14.01 270.63 6.96 261.44 55.44"/><path class="cls-249" d="M187.49,110.29s12.23,9.86,12.36,9.56S239,87.49,239,87.49"/><polyline class="cls-250" points="238.97 87.48 212.65 129.75 199.59 119.9"/><polyline class="cls-251" points="212.65 129.75 223.82 129.22 216.16 143.83"/><polyline class="cls-252" points="223.82 129.22 246.94 119.85 216.16 143.83"/><polyline class="cls-253" points="238.97 87.48 223.82 129.22 212.65 129.75"/><polyline class="cls-254" points="238.97 87.48 246.94 119.85 223.82 129.22"/><polyline class="cls-255" points="238.97 87.48 248.37 74.09 242.03 99.92"/><polyline class="cls-256" points="248.37 74.09 254.47 87.27 242.03 99.92"/><polygon class="cls-257" points="246.94 119.85 242.03 99.92 254.47 87.27 246.94 119.85"/><polygon class="cls-258" points="246.94 119.85 261.44 55.44 277.06 79.98 246.94 119.85"/><polygon class="cls-259" points="248.37 74.09 257.37 73.53 253.48 65.91 248.37 74.09"/><polygon class="cls-260" points="261.44 55.44 253.48 65.91 259.29 65 261.44 55.44"/><polygon class="cls-261" points="253.48 65.91 257.37 73.53 259.29 65 253.48 65.91"/><polyline class="cls-262" points="270.63 6.96 288.8 22.16 267.02 26.03"/><polyline class="cls-263" points="267.02 26.03 295.52 35.12 288.8 22.16"/><polyline class="cls-264" points="267.02 26.03 301.75 47.14 295.52 35.12"/><polyline class="cls-265" points="267.02 26.03 264.79 37.77 281.9 35.07"/><polygon class="cls-266" points="261.44 55.44 264.79 37.77 281.9 35.07 261.44 55.44"/><polyline class="cls-267" points="261.44 55.44 301.75 47.14 281.9 35.07"/><polygon class="cls-268" points="261.44 55.44 277.06 79.98 301.75 47.14 261.44 55.44"/><polygon class="cls-269" points="246.94 119.85 301.75 47.14 333.27 107.91 246.94 119.85"/><polygon class="cls-270" points="288.8 22.16 333.27 107.91 358.19 33.1 288.8 22.16"/><polyline class="cls-271" points="241.42 239.65 265.63 230.18 216.16 143.83"/><polyline class="cls-272" points="216.16 143.83 252.75 151.57 265.63 230.18"/><polyline class="cls-273" points="216.16 143.83 246.94 119.85 252.75 151.57"/><polyline class="cls-274" points="246.94 119.85 333.27 107.91 265.63 230.18"/><polyline class="cls-275" points="265.63 230.18 282.28 296.42 251.05 265.93"/><polyline class="cls-276" points="251.05 265.93 251.87 312.67 282.28 296.42"/><polyline class="cls-277" points="265.63 230.18 319.18 288.07 282.28 296.42"/><polygon class="cls-278" points="333.27 107.91 265.63 230.18 345.19 275.69 333.27 107.91"/><polygon class="cls-279" points="265.63 230.18 319.18 288.07 345.19 275.69 265.63 230.18"/><polyline class="cls-280" points="251.87 312.67 294.11 377.87 282.28 296.42"/><polyline class="cls-281" points="294.11 377.87 342.46 362.87 282.28 296.42"/><polygon class="cls-282" points="333.27 107.91 358.19 33.1 423.93 184.1 333.27 107.91"/><polyline class="cls-283" points="339.89 201.13 423.93 184.1 333.27 107.91"/><polyline class="cls-284" points="339.89 201.13 379.71 249.56 406.75 187.58"/><polygon class="cls-285" points="423.93 184.1 379.71 249.56 406.75 187.58 423.93 184.1"/><polyline class="cls-286" points="339.89 201.13 345.19 275.69 379.71 249.56"/><path class="cls-287" d="M345.19,275.69l12.19,20.37s19.46-14,19.06-14S345.19,275.69,345.19,275.69Z"/><polyline class="cls-288" points="379.71 249.56 359.82 278.74 345.19 275.69"/><polyline class="cls-289" points="379.71 249.56 376.43 282.03 359.82 278.74"/><polyline class="cls-290" points="379.71 249.56 397.47 263.28 376.43 282.03"/><polygon class="cls-291" points="282.28 296.42 301.4 292.09 306.04 302.86 282.28 296.42"/><polygon class="cls-292" points="282.28 296.42 306.04 302.86 297.15 312.84 282.28 296.42"/><polygon class="cls-293" points="301.4 292.09 308.62 290.43 306.04 302.86 301.4 292.09"/><polygon class="cls-294" points="308.62 290.43 319.18 288.07 306.04 302.86 308.62 290.43"/><polygon class="cls-295" points="319.18 288.07 314.64 332.15 297.15 312.84 319.18 288.07"/><polygon class="cls-296" points="319.18 288.07 333.29 299.75 317.39 305.45 319.18 288.07"/><path class="cls-297" d="M345.19,275.69c-.2.27-17.51,19.41-17.51,19.41l-8.5-7Z"/><polygon class="cls-298" points="345.19 275.69 338.5 283.13 357.38 296.06 345.19 275.69"/><polygon class="cls-299" points="338.5 283.13 333.29 299.75 327.68 295.11 338.5 283.13"/><polygon class="cls-300" points="338.5 283.13 357.38 296.06 333.29 299.75 338.5 283.13"/><polygon class="cls-301" points="314.64 332.15 333.29 299.75 317.39 305.45 314.64 332.15"/><polygon class="cls-302" points="357.38 296.06 314.64 332.15 333.29 299.75 357.38 296.06"/><polyline class="cls-303" points="357.38 296.06 353.66 334.51 314.64 332.15"/><polyline class="cls-304" points="314.64 332.15 353.66 334.51 342.46 362.87"/><polygon class="cls-305" points="375.94 73.86 423.93 184.1 422.77 114.63 375.94 73.86"/><polygon class="cls-306" points="422.77 114.63 560.03 192.52 423.93 184.1 422.77 114.63"/><polygon class="cls-307" points="422.77 114.63 454.49 74.08 560.03 192.52 422.77 114.63"/><polyline class="cls-308" points="375.94 73.86 411.55 83.55 422.77 114.63"/><polyline class="cls-309" points="411.55 83.55 454.49 74.08 422.77 114.63"/><polyline class="cls-310" points="411.55 83.55 404.75 64.81 375.94 73.86"/><polyline class="cls-311" points="454.49 74.08 404.75 64.81 411.55 83.55"/><polygon class="cls-312" points="375.94 73.86 375.83 50.45 368.44 56.64 375.94 73.86"/><polygon class="cls-313" points="375.83 50.45 375.94 73.86 404.75 64.81 375.83 50.45"/><polygon class="cls-314" points="375.83 50.45 397.89 48.04 404.75 64.81 375.83 50.45"/><path class="cls-315" d="M358.19,33.1c.05-.2,12.15-9.52,12.15-9.52l-1.9,33.06Z"/><polygon class="cls-316" points="270.63 6.96 306.66 7.93 288.8 22.16 270.63 6.96"/><polygon class="cls-317" points="270.63 6.96 307.7 0 306.66 7.93 270.63 6.96"/><polygon class="cls-318" points="306.66 7.93 311.61 25.75 288.8 22.16 306.66 7.93"/><polygon class="cls-319" points="307.45 1.6 306.66 7.93 349.14 7.39 307.45 1.6"/><polygon class="cls-320" points="306.66 7.93 349.14 7.39 332 21.97 306.66 7.93"/><polygon class="cls-321" points="306.66 7.93 332 21.97 325.52 27.95 306.66 7.93"/><polygon class="cls-322" points="306.66 7.93 311.61 25.75 325.52 27.95 306.66 7.93"/><polygon class="cls-323" points="332 21.97 325.52 27.95 339.49 30.15 332 21.97"/><polygon class="cls-324" points="343.75 11.98 332 21.97 339.49 30.15 343.75 11.98"/><path class="cls-325" d="M343.75,12S358.67,33,358.19,33.1s-10.1-1.59-10.1-1.59Z"/><polygon class="cls-326" points="343.75 11.98 339.49 30.15 348.1 31.51 343.75 11.98"/><path class="cls-327" d="M343.75,12l5.39-4.59s9.11,25.79,9,25.71C357.93,32.74,342.05,9.49,343.75,12Z"/><polygon class="cls-328" points="349.14 7.39 370.35 23.58 358.19 33.1 349.14 7.39"/><polygon class="cls-329" points="370.26 25 368.44 56.64 388.24 39.99 370.26 25"/><polygon class="cls-330" points="388.24 39.99 375.83 50.45 397.89 48.04 388.24 39.99"/><polygon class="cls-331" points="349.14 7.39 397.89 48.04 410.08 35.65 349.14 7.39"/><polygon class="cls-332" points="410.08 35.65 397.89 48.04 454.49 74.08 410.08 35.65"/><polygon class="cls-333" points="397.89 48.04 404.75 64.81 454.49 74.08 397.89 48.04"/><polygon class="cls-334" points="357.38 296.06 379.5 341.39 354.92 321.48 357.38 296.06"/><polygon class="cls-335" points="354.92 321.48 353.66 334.51 379.5 341.39 354.92 321.48"/><polygon class="cls-336" points="353.66 334.51 342.46 362.87 392.12 344.75 353.66 334.51"/><polygon class="cls-337" points="357.38 296.06 376.43 282.03 379.5 341.39 357.38 296.06"/><polygon class="cls-338" points="397.47 263.28 378.19 315.95 376.43 282.03 397.47 263.28"/><polygon class="cls-339" points="378.19 315.95 507.73 302.97 392.12 344.75 378.19 315.95"/><polygon class="cls-340" points="378.19 315.95 379.5 341.39 392.12 344.75 378.19 315.95"/><polygon class="cls-341" points="379.71 249.56 392.31 245.26 386.47 239.55 379.71 249.56"/><polygon class="cls-342" points="379.71 249.56 397.47 263.28 392.31 245.26 379.71 249.56"/><polygon class="cls-343" points="386.47 239.55 392.31 245.26 392.08 231.24 386.47 239.55"/><polygon class="cls-344" points="392.08 231.24 392.31 245.26 407.35 233.72 392.08 231.24"/><polygon class="cls-345" points="392.08 231.24 396.1 225.29 407.35 233.72 392.08 231.24"/><polygon class="cls-346" points="392.31 245.26 397.47 263.28 407.35 233.72 392.31 245.26"/><polygon class="cls-347" points="396.1 225.29 407.35 233.72 423.93 184.1 396.1 225.29"/><polygon class="cls-348" points="507.73 302.97 423.93 184.1 378.19 315.95 507.73 302.97"/><polygon class="cls-349" points="423.93 184.1 451.05 222.57 560.03 192.52 423.93 184.1"/><polygon class="cls-350" points="451.05 222.57 465.75 243.41 459.56 220.22 451.05 222.57"/><polygon class="cls-351" points="459.56 220.22 489.14 212.07 502.13 235.67 459.56 220.22"/><polygon class="cls-352" points="459.56 220.22 465.75 243.41 502.13 235.67 459.56 220.22"/><polygon class="cls-353" points="489.14 212.07 560.03 192.52 502.13 235.67 489.14 212.07"/><polygon class="cls-354" points="560.03 192.52 583.9 248.22 528.02 255.42 560.03 192.52"/><polygon class="cls-355" points="560.03 192.52 528.02 255.42 502.13 235.67 560.03 192.52"/><polygon class="cls-356" points="465.75 243.41 502.13 235.67 504.98 263.96 465.75 243.41"/><polygon class="cls-357" points="502.13 235.67 528.02 255.42 504.98 263.96 502.13 235.67"/><polygon class="cls-358" points="465.75 243.41 504.98 263.96 507.73 302.97 465.75 243.41"/><polygon class="cls-359" points="504.98 263.96 528.02 255.42 507.73 302.97 504.98 263.96"/><polygon class="cls-360" points="507.73 302.97 528.02 255.42 567.37 318.99 507.73 302.97"/><polygon class="cls-361" points="528.02 255.42 583.9 248.22 567.37 318.99 528.02 255.42"/><polygon class="cls-362" points="583.9 248.22 603.32 323.07 567.37 318.99 583.9 248.22"/><polygon class="cls-363" points="583.9 248.22 658.22 328.3 603.32 323.07 583.9 248.22"/><polygon class="cls-364" points="507.73 302.97 488.67 357.58 391.3 344.75 507.73 302.97"/><polygon class="cls-365" points="507.73 302.97 488.67 357.58 567.37 318.99 507.73 302.97"/><polygon class="cls-366" points="488.67 357.58 529.03 364.41 529.03 364.41 567.37 318.99 488.67 357.58"/><polygon class="cls-367" points="529.03 364.41 603.32 323.07 567.37 318.99 529.03 364.41"/><path class="cls-368" d="M529,364.41s58-19.27,58.66-19.17,15.63-22.17,15.63-22.17Z"/><polygon class="cls-369" points="488.67 357.58 529.03 364.41 457.12 425.58 488.67 357.58"/><polygon class="cls-370" points="392.12 344.75 488.67 357.58 427.89 378.63 392.12 344.75"/><polygon class="cls-371" points="427.89 378.63 488.67 357.58 457.12 425.58 427.89 378.63"/><polygon class="cls-372" points="342.46 362.87 392.12 344.75 386.95 445.2 342.46 362.87"/><polygon class="cls-373" points="392.12 344.75 386.95 445.2 397.47 450.01 392.12 344.75"/><polygon class="cls-374" points="392.12 344.75 427.89 378.63 396.87 438.22 392.12 344.75"/><polygon class="cls-375" points="396.87 438.22 397.47 450.01 413.53 451.33 396.87 438.22"/><polygon class="cls-376" points="427.89 378.63 413.53 451.33 396.87 438.22 427.89 378.63"/><polygon class="cls-377" points="427.89 378.63 457.12 425.58 413.53 451.33 427.89 378.63"/><polygon class="cls-378" points="342.46 362.87 294.11 377.87 326.5 417.57 342.46 362.87"/><polygon class="cls-379" points="342.46 362.87 386.95 445.2 326.5 417.57 342.46 362.87"/><polygon class="cls-380" points="326.5 417.57 327.83 466.38 397.47 450.01 326.5 417.57"/><path class="cls-25" d="M327.83,466.38"/><path class="cls-381" d="M327.83,466.38c0,.2-.38,12.81-.38,12.81l22.51-18Z"/><polygon class="cls-382" points="327.44 479.2 330.93 490.13 349.95 461.18 327.44 479.2"/><polygon class="cls-383" points="349.95 461.18 365.02 457.64 343.42 471.12 349.95 461.18"/><polygon class="cls-384" points="343.42 471.12 340.25 502.95 330.93 490.13 343.42 471.12"/><polygon class="cls-385" points="330.93 490.13 330.9 513.95 340.25 502.95 330.93 490.13"/><polygon class="cls-386" points="343.42 471.12 351.34 476.45 341.7 488.34 343.42 471.12"/><polygon class="cls-387" points="343.42 471.12 365.02 457.64 358.62 470.55 343.42 471.12"/><polygon class="cls-388" points="343.42 471.12 356.89 480.19 358.62 470.55 343.42 471.12"/><polygon class="cls-389" points="341.7 488.34 356.89 480.19 351.34 476.45 341.7 488.34"/><polygon class="cls-390" points="341.7 488.34 340.77 497.73 349.82 483.98 341.7 488.34"/><polygon class="cls-391" points="349.82 483.98 356.89 480.19 360.33 488.1 349.82 483.98"/><polygon class="cls-392" points="349.82 483.98 345.69 490.26 360.33 488.1 349.82 483.98"/><polygon class="cls-393" points="345.69 490.26 365.04 498.9 360.33 488.1 345.69 490.26"/><polygon class="cls-394" points="345.66 490.26 345.24 503.01 365.04 498.9 345.66 490.26"/><polygon class="cls-395" points="345.69 490.26 345.24 503.01 340.77 497.73 345.69 490.26"/><polygon class="cls-396" points="340.77 497.73 340.25 502.95 345.24 503.01 340.77 497.73"/><polygon class="cls-397" points="340.25 502.95 342.84 510.5 345.24 503.01 340.25 502.95"/><polygon class="cls-398" points="345.24 503.01 349.5 514.3 354.21 500.91 345.24 503.01"/><polygon class="cls-399" points="354.21 500.91 365.04 498.9 369.4 508.37 354.21 500.91"/><polygon class="cls-397" points="354.21 500.91 349.5 514.3 362.03 504.75 354.21 500.91"/><polygon class="cls-400" points="362.03 504.75 363.03 518.2 349.5 514.3 362.03 504.75"/><polygon class="cls-401" points="362.03 504.75 363.03 518.2 369.4 508.37 362.03 504.75"/><polygon class="cls-402" points="345.24 503.01 349.5 514.3 341.63 514.29 345.24 503.01"/><path class="cls-403" d="M342.84,510.5l-2.59-7.55s1.38,11.88,1.38,11.34Z"/><polygon class="cls-404" points="340.25 502.95 330.9 513.95 341.63 514.29 340.25 502.95"/><polygon class="cls-405" points="330.9 513.95 336.64 531.47 341.63 514.29 330.9 513.95"/><polygon class="cls-406" points="341.63 514.29 345.98 542.72 336.64 531.47 341.63 514.29"/><polygon class="cls-407" points="341.63 514.29 349.5 514.3 343.38 525.7 341.63 514.29"/><polygon class="cls-408" points="349.5 514.3 363.03 518.2 355.1 530.13 349.5 514.3"/><polygon class="cls-409" points="349.5 514.3 355.1 530.13 343.38 525.7 349.5 514.3"/><polygon class="cls-410" points="343.38 525.7 345.98 542.72 355.1 530.13 343.38 525.7"/><polygon class="cls-411" points="369.4 508.37 374.12 518.59 363.03 518.2 369.4 508.37"/><path class="cls-412" d="M363,518.2s4.85,8.55,4.85,8.21l6.23-7.82Z"/><polygon class="cls-413" points="363.03 518.2 359.47 523.55 367.88 526.41 363.03 518.2"/><polygon class="cls-414" points="359.47 523.55 355.1 530.13 361.3 536.94 359.47 523.55"/><polygon class="cls-415" points="359.47 523.55 367.88 526.41 361.3 536.94 359.47 523.55"/><polygon class="cls-416" points="355.1 530.13 361.3 536.94 352.58 540.81 355.1 530.13"/><polygon class="cls-417" points="355.1 530.13 352.58 540.81 345.98 542.72 355.1 530.13"/><polygon class="cls-418" points="345.98 542.72 351.81 549.74 352.58 540.81 345.98 542.72"/><polygon class="cls-419" points="352.58 540.81 365.38 549.35 361.3 536.94 352.58 540.81"/><polygon class="cls-420" points="352.58 540.81 351.81 549.74 360.74 546.25 352.58 540.81"/><path class="cls-421" d="M351.81,549.74l9.29,11.18c.14-.61-.36-14.67-.36-14.67Z"/><polygon class="cls-422" points="360.74 546.25 361.1 560.92 365.38 549.35 360.74 546.25"/><polygon class="cls-423" points="361.1 560.92 365.38 549.35 371.08 555.67 361.1 560.92"/><polygon class="cls-424" points="367.88 526.41 378.97 529.13 374.12 518.59 367.88 526.41"/><polygon class="cls-425" points="367.88 526.41 378.07 542.52 383.28 538.46 367.88 526.41"/><polygon class="cls-426" points="367.88 526.41 378.97 529.13 383.28 538.46 367.88 526.41"/><polygon class="cls-427" points="367.88 526.41 378.07 542.52 372.72 547.96 367.88 526.41"/><polygon class="cls-428" points="367.88 526.41 361.3 536.94 370.66 538.8 367.88 526.41"/><polygon class="cls-429" points="361.3 536.94 370.66 538.8 372.72 547.96 361.3 536.94"/><polygon class="cls-430" points="361.3 536.94 365.38 549.35 372.72 547.96 361.3 536.94"/><path class="cls-431" d="M365.37,549.35s5.7,6.66,5.7,6.32,2-8.18,1.64-7.71Z"/><polygon class="cls-432" points="372.72 547.96 371.08 555.67 381.45 553.05 372.72 547.96"/><path class="cls-433" d="M372.72,548l8.73,5.09s-3.24-10.93-3.38-10.53Z"/><polygon class="cls-434" points="378.07 542.52 383.28 538.46 391.09 548.61 378.07 542.52"/><polygon class="cls-435" points="378.07 542.52 381.45 553.05 391.09 548.61 378.07 542.52"/><polygon class="cls-436" points="336.64 531.47 339.03 544.06 342.53 562.55 361.1 560.92 336.64 531.47"/><polygon class="cls-437" points="342.53 562.55 353.18 577.13 361.1 560.92 342.53 562.55"/><polygon class="cls-438" points="361.1 560.92 384.94 577.15 353.18 577.13 361.1 560.92"/><polygon class="cls-439" points="353.18 577.13 367.93 603.97 384.94 577.15 353.18 577.13"/><polygon class="cls-440" points="361.1 560.92 371.08 555.67 384.94 577.15 361.1 560.92"/><polygon class="cls-441" points="371.08 555.67 381.45 553.05 384.94 577.15 371.08 555.67"/><path class="cls-442" d="M381.45,553s15.52,4.39,14.91,4.46l-11.43,19.64Z"/><polygon class="cls-443" points="381.45 553.05 391.09 548.61 396.37 557.51 381.45 553.05"/><polygon class="cls-444" points="365.04 498.9 383.28 538.46 426.76 517.62 365.04 498.9"/><polygon class="cls-445" points="365.04 498.9 377.79 483.62 426.76 517.62 365.04 498.9"/><polygon class="cls-446" points="377.79 483.62 409.14 483.84 426.76 517.62 377.79 483.62"/><polygon class="cls-447" points="409.14 483.84 432.19 467.06 426.76 517.62 409.14 483.84"/><polygon class="cls-448" points="432.19 467.06 426.76 517.62 464.92 499.61 432.19 467.06"/><polygon class="cls-449" points="426.76 517.62 464.92 499.61 666.91 579.57 426.76 517.62"/><polygon class="cls-450" points="426.76 517.62 666.91 579.57 590 662.33 426.76 517.62"/><path class="cls-25" d="M426.76,517.62"/><polygon class="cls-451" points="426.76 517.62 590 662.33 460.29 647.34 426.76 517.62"/><polygon class="cls-452" points="426.76 517.62 444.92 587.87 396.37 557.51 426.76 517.62"/><polygon class="cls-453" points="426.76 517.62 396.37 557.51 391.09 548.61 426.76 517.62"/><polygon class="cls-454" points="383.28 538.46 391.09 548.61 426.76 517.62 383.28 538.46"/><polygon class="cls-455" points="356.89 480.19 370.46 492.4 365.04 498.9 356.89 480.19"/><polygon class="cls-456" points="356.89 480.19 377.79 483.62 358.62 470.55 356.89 480.19"/><polygon class="cls-457" points="356.89 480.19 368.83 482.15 370.46 492.4 356.89 480.19"/><polygon class="cls-458" points="368.83 482.15 370.46 492.4 377.79 483.62 368.83 482.15"/><polygon class="cls-459" points="365.02 457.64 358.62 470.55 374.02 468.4 365.02 457.64"/><polygon class="cls-460" points="358.62 470.55 374.02 468.4 377.79 483.62 358.62 470.55"/><polygon class="cls-461" points="374.02 468.4 377.79 483.62 409.14 483.84 374.02 468.4"/><polygon class="cls-462" points="365.02 457.64 397.06 459.5 387.17 471.44 365.02 457.64"/><polygon class="cls-463" points="397.06 459.5 409.14 483.84 387.52 471.02 397.06 459.5"/><polygon class="cls-464" points="397.06 459.5 432.19 467.06 409.14 483.84 397.06 459.5"/><polygon class="cls-465" points="365.02 457.64 365.02 457.64 397.06 459.5 397.47 450.01 365.02 457.64"/><polygon class="cls-466" points="397.47 450.01 397.06 459.5 413.53 451.33 397.47 450.01"/><polygon class="cls-467" points="397.06 459.5 413.53 451.33 432.19 467.06 397.06 459.5"/><polygon class="cls-468" points="457.12 425.58 432.19 467.06 413.53 451.33 457.12 425.58"/><polygon class="cls-469" points="457.12 425.58 469.93 447.38 432.19 467.06 457.12 425.58"/><polygon class="cls-470" points="457.12 425.58 467.12 417.14 469.93 447.38 457.12 425.58"/><polygon class="cls-471" points="467.12 417.14 502.7 433.3 469.93 447.38 467.12 417.14"/><polygon class="cls-472" points="467.12 417.14 494.38 393.88 502.7 433.3 467.12 417.14"/><polygon class="cls-473" points="494.38 393.88 507.18 409.74 502.7 433.3 494.38 393.88"/><polygon class="cls-474" points="507.18 409.74 502.7 433.3 516.8 421.69 507.18 409.74"/><polygon class="cls-475" points="432.19 467.06 464.92 499.61 469.93 447.38 432.19 467.06"/><polygon class="cls-476" points="469.93 447.38 464.92 499.61 481.26 442.51 469.93 447.38"/><polygon class="cls-477" points="481.26 442.51 502.7 433.3 464.92 499.61 481.26 442.51"/><polygon class="cls-478" points="487.72 465.36 464.92 499.61 515.85 519.77 487.72 465.36"/><polygon class="cls-479" points="487.72 465.36 516.8 421.69 515.85 519.77 487.72 465.36"/><polygon class="cls-480" points="516.8 421.69 666.91 579.57 515.85 519.77 516.8 421.69"/><polygon class="cls-481" points="494.38 393.88 529.03 364.41 507.18 409.74 494.38 393.88"/><polygon class="cls-482" points="507.18 409.74 516.8 421.69 587.69 345.24 507.18 409.74"/><polygon class="cls-483" points="529.03 364.41 507.18 409.74 587.69 345.24 529.03 364.41"/><polygon class="cls-484" points="516.8 421.69 587.69 345.24 676.04 413.19 516.8 421.69"/><polygon class="cls-485" points="516.8 421.69 676.04 413.19 666.91 579.57 516.8 421.69"/><polygon class="cls-486" points="603.32 323.07 587.69 345.24 658.22 328.3 603.32 323.07"/><polygon class="cls-487" points="587.69 345.24 638.23 333.1 676.04 413.19 587.69 345.24"/><polygon class="cls-488" points="638.23 333.1 658.22 328.3 676.04 413.19 638.23 333.1"/><polygon class="cls-489" points="658.22 328.3 689.25 362.39 676.04 413.19 658.22 328.3"/><polygon class="cls-490" points="676.04 413.19 689.25 362.39 715.52 419.13 676.04 413.19"/><polygon class="cls-491" points="689.25 362.39 739.42 415.7 715.52 419.13 689.25 362.39"/><polygon class="cls-492" points="676.04 413.19 715.52 419.13 707.57 528.34 676.04 413.19"/><polygon class="cls-493" points="715.52 419.13 739.42 415.7 707.57 528.34 715.52 419.13"/><polygon class="cls-494" points="676.04 413.19 707.57 528.34 672.3 476.01 676.04 413.19"/><polygon class="cls-495" points="672.3 476.01 691.31 504.21 666.91 579.57 672.3 476.01"/><polygon class="cls-496" points="691.31 504.21 707.57 528.34 666.91 579.57 691.31 504.21"/><polygon class="cls-497" points="739.42 415.7 720.87 481.32 793.99 461.17 739.42 415.7"/><polygon class="cls-498" points="720.87 481.32 707.57 528.34 774.22 504.34 720.87 481.32"/><polygon class="cls-499" points="720.87 481.32 766.36 468.78 774.22 504.34 720.87 481.32"/><polygon class="cls-500" points="766.36 468.78 793.99 461.17 774.22 504.34 766.36 468.78"/><polygon class="cls-501" points="793.99 461.17 850.05 513.36 774.22 504.34 793.99 461.17"/><polygon class="cls-502" points="666.91 579.57 707.57 528.34 737.08 596.34 666.91 579.57"/><polygon class="cls-503" points="707.57 528.34 774.22 504.34 737.08 596.34 707.57 528.34"/><polygon class="cls-504" points="774.22 504.34 806.4 608.68 737.08 596.34 774.22 504.34"/><polygon class="cls-505" points="774.22 504.34 850.05 513.36 806.4 608.68 774.22 504.34"/><polygon class="cls-506" points="850.05 513.36 920.12 603.02 806.4 608.68 850.05 513.36"/><polygon class="cls-507" points="666.91 579.57 737.08 596.34 703.42 641.8 666.91 579.57"/><polygon class="cls-508" points="666.91 579.57 703.42 641.8 672.3 669.34 666.91 579.57"/><polygon class="cls-509" points="666.91 579.57 590 662.33 672.3 669.34 666.91 579.57"/><polygon class="cls-510" points="590 662.33 672.3 669.34 682.3 702.1 590 662.33"/><polygon class="cls-511" points="460.29 647.34 559.05 717.22 590 662.33 460.29 647.34"/><polygon class="cls-512" points="590 662.33 559.05 717.22 618.12 699.97 590 662.33"/><polygon class="cls-513" points="590 662.33 618.12 699.97 682.3 702.1 590 662.33"/><polygon class="cls-514" points="618.12 699.97 682.3 702.1 703.32 768.4 618.12 699.97"/><polygon class="cls-515" points="618.12 699.97 703.32 768.4 639.35 754.27 618.12 699.97"/><polygon class="cls-516" points="618.12 699.97 639.35 754.27 559.05 717.22 618.12 699.97"/><polygon class="cls-517" points="672.3 669.34 698.34 665.46 703.42 641.8 672.3 669.34"/><polygon class="cls-518" points="672.3 669.34 698.34 665.46 695.87 744.89 672.3 669.34"/><polygon class="cls-519" points="703.42 641.8 698.34 665.46 759.59 681.46 703.42 641.8"/><polygon class="cls-520" points="737.08 596.34 703.42 641.8 759.59 681.46 737.08 596.34"/><polygon class="cls-521" points="737.08 596.34 759.59 681.46 806.4 608.68 737.08 596.34"/><polygon class="cls-522" points="806.4 608.68 819.52 710.33 759.59 681.46 806.4 608.68"/><polygon class="cls-523" points="806.4 608.68 814.65 672.57 920.12 603.02 806.4 608.68"/><polygon class="cls-524" points="814.65 672.57 819.52 710.33 920.12 603.02 814.65 672.57"/><polygon class="cls-525" points="920.12 603.02 924.17 633.77 943.88 639.59 920.12 603.02"/><polygon class="cls-526" points="943.88 639.59 819.52 710.33 924.17 633.77 943.88 639.59"/><polygon class="cls-527" points="819.52 710.33 943.88 639.59 942.39 747.32 819.52 710.33"/><polygon class="cls-528" points="698.34 665.46 695.87 744.89 759.59 681.46 698.34 665.46"/><polygon class="cls-529" points="759.59 681.46 819.52 710.33 695.87 744.89 759.59 681.46"/><polygon class="cls-530" points="695.87 744.89 819.52 710.33 758.5 779.45 695.87 744.89"/><polygon class="cls-531" points="695.87 744.89 758.5 779.45 703.32 768.4 695.87 744.89"/><polygon class="cls-532" points="819.52 710.33 758.5 779.45 837.5 791.14 819.52 710.33"/><polygon class="cls-533" points="819.52 710.33 831.8 765.56 901.19 734.91 819.52 710.33"/><polygon class="cls-534" points="831.8 765.56 837.5 791.14 901.19 734.91 831.8 765.56"/><polygon class="cls-535" points="942.39 747.32 890.32 779.45 901.19 734.91 942.39 747.32"/><polygon class="cls-536" points="901.19 734.91 890.32 779.45 852.77 777.66 901.19 734.91"/><path class="cls-537" d="M837.5,791.14c.61-.41,15.27-13.48,15.27-13.48l25.14,19.1Z"/><polygon class="cls-538" points="852.77 777.66 876.78 778.8 877.91 796.76 852.77 777.66"/><polygon class="cls-539" points="944.08 666.27 1010.15 695.34 943.06 714.27 944.08 666.27"/><path class="cls-540" d="M943.06,714.27,995.58,724S959,709.8,958.18,710,943.06,714.27,943.06,714.27Z"/><polygon class="cls-513" points="958.18 710 1010.15 695.34 1008.56 714.68 958.18 710"/><polygon class="cls-533" points="958.18 710 1008.56 714.68 995.58 723.97 958.18 710"/><polygon class="cls-445" points="1010.15 695.34 1050.9 694.41 1008.56 714.68 1010.15 695.34"/><polygon class="cls-536" points="995.58 723.97 1008.56 714.68 1037.11 715.21 995.58 723.97"/><polygon class="cls-541" points="1008.56 714.68 1050.9 694.41 1075.85 715.93 1008.56 714.68"/><polygon class="cls-542" points="1050.9 694.41 1090.18 678.78 1075.85 715.93 1050.9 694.41"/><polygon class="cls-543" points="1090.18 678.78 1075.85 715.93 1105.97 701.96 1090.18 678.78"/><polygon class="cls-544" points="1090.18 678.78 1105.97 669.56 1105.97 701.96 1090.18 678.78"/><polygon class="cls-545" points="396.37 557.51 409.38 565.65 397.85 566.2 396.37 557.51"/><polygon class="cls-546" points="396.37 557.51 397.85 566.2 392.03 564.55 396.37 557.51"/><polygon class="cls-547" points="392.03 564.55 393.74 569.64 397.85 566.2 392.03 564.55"/><polygon class="cls-548" points="397.85 566.2 397.66 570.25 393.74 569.64 397.85 566.2"/><polygon class="cls-549" points="397.85 566.2 397.66 570.25 401.74 566.01 397.85 566.2"/><polygon class="cls-550" points="401.74 566.01 409.38 565.65 403.48 579.76 401.74 566.01"/><polygon class="cls-551" points="401.74 566.01 403.48 579.76 396.82 578.82 401.74 566.01"/><polygon class="cls-552" points="401.74 566.01 396.82 578.82 394.9 573.09 401.74 566.01"/><polygon class="cls-553" points="393.74 569.64 394.9 573.09 397.66 570.25 393.74 569.64"/><polygon class="cls-554" points="392.03 564.55 396.82 578.82 384.94 577.15 392.03 564.55"/><polygon class="cls-555" points="384.94 577.15 391.26 596.93 403.48 579.76 384.94 577.15"/><polygon class="cls-556" points="384.94 577.15 367.93 603.97 391.26 596.93 384.94 577.15"/><polygon class="cls-557" points="367.93 603.97 391.26 596.93 380.07 616.35 367.93 603.97"/><polygon class="cls-558" points="403.48 579.76 406.98 593.73 391.26 596.93 403.48 579.76"/><polygon class="cls-559" points="409.38 565.65 403.48 579.76 414.08 598.26 409.38 565.65"/><polygon class="cls-560" points="409.38 565.65 444.92 587.87 414.08 598.26 409.38 565.65"/><polygon class="cls-561" points="403.48 579.76 414.08 598.26 406.98 593.73 403.48 579.76"/><polygon class="cls-562" points="391.26 596.93 395.7 605.41 406.98 593.73 391.26 596.93"/><polygon class="cls-563" points="406.98 593.73 414.08 598.26 395.7 605.41 406.98 593.73"/><polygon class="cls-564" points="391.26 596.93 395.7 605.41 380.07 616.35 391.26 596.93"/><polygon class="cls-565" points="380.07 616.35 398 618.73 395.7 605.41 380.07 616.35"/><polygon class="cls-566" points="395.7 605.41 414.08 598.26 402.89 613.32 395.7 605.41"/><polygon class="cls-567" points="395.7 605.41 402.89 613.32 398 618.73 395.7 605.41"/><polygon class="cls-568" points="380.07 616.35 403.37 651.91 398 618.73 380.07 616.35"/><polygon class="cls-569" points="398 618.73 402.89 613.32 407.54 627.19 398 618.73"/><polygon class="cls-570" points="398 618.73 403.37 651.91 407.54 627.19 398 618.73"/><polygon class="cls-571" points="367.93 603.97 380.07 616.35 367.7 647.25 367.93 603.97"/><polygon class="cls-572" points="380.07 616.35 403.37 651.91 367.7 647.25 380.07 616.35"/><polygon class="cls-573" points="367.7 647.25 395 728.4 374.06 648.36 367.7 647.25"/><polygon class="cls-574" points="374.06 648.36 416.42 653.67 395 728.4 374.06 648.36"/><polygon class="cls-575" points="407.54 627.19 416.42 653.67 403.37 651.91 407.54 627.19"/><polygon class="cls-576" points="402.89 613.32 418.05 620.03 416.42 653.67 402.89 613.32"/><polygon class="cls-577" points="402.89 613.32 414.08 598.26 418.05 620.03 402.89 613.32"/><polygon class="cls-578" points="414.08 598.26 444.92 587.87 460.29 647.34 414.08 598.26"/><polygon class="cls-579" points="414.08 598.26 460.29 647.34 418.05 620.03 414.08 598.26"/><polygon class="cls-472" points="418.05 620.03 416.42 653.67 438.93 633.53 418.05 620.03"/><polygon class="cls-580" points="432.36 639.41 460.29 647.34 438.93 633.53 432.36 639.41"/><polygon class="cls-467" points="460.29 647.34 471.23 676.8 432.36 639.41 460.29 647.34"/><polygon class="cls-469" points="432.36 639.41 416.42 653.67 471.23 676.8 432.36 639.41"/><polygon class="cls-581" points="460.29 647.34 471.23 676.8 496.27 672.8 460.29 647.34"/><polygon class="cls-582" points="471.23 676.8 496.27 697.57 490.89 678.4 471.23 676.8"/><polygon class="cls-583" points="471.23 676.8 496.27 672.8 490.89 678.4 471.23 676.8"/><polygon class="cls-584" points="490.89 678.4 496.27 672.8 559.05 717.22 490.89 678.4"/><polygon class="cls-473" points="490.89 678.4 496.27 697.57 559.05 717.22 490.89 678.4"/><polygon class="cls-585" points="416.42 653.67 471.23 676.8 420.67 693.28 416.42 653.67"/><polygon class="cls-586" points="420.67 693.28 471.23 676.8 496.27 697.57 420.67 693.28"/><polygon class="cls-587" points="416.42 653.67 430.3 783.12 395 728.4 416.42 653.67"/><polygon class="cls-588" points="395 728.4 399.03 749.89 430.3 783.12 395 728.4"/><polygon class="cls-589" points="399.03 749.89 404.52 778.63 430.3 783.12 399.03 749.89"/><polygon class="cls-590" points="430.3 783.12 401.54 808.62 404.52 778.63 430.3 783.12"/><polygon class="cls-591" points="430.3 783.12 401.54 808.62 425.23 837.23 430.3 783.12"/><polygon class="cls-592" points="672.13 876.24 632.66 898.55 645.19 913 672.13 876.24"/><polygon class="cls-593" points="672.13 876.24 645.19 913 696.72 916.3 672.13 876.24"/><polygon class="cls-594" points="425.23 837.23 449.58 848.12 422.96 879.38 425.23 837.23"/><polygon class="cls-595" points="430.3 783.12 449.58 848.12 425.23 837.23 430.3 783.12"/><polygon class="cls-596" points="430.3 783.12 447.1 771.89 449.58 848.12 430.3 783.12"/><polygon class="cls-597" points="420.67 693.28 430.3 783.12 446.42 694.74 420.67 693.28"/><polygon class="cls-598" points="440.37 728.13 454.45 695.19 446.42 694.74 440.37 728.13"/><polygon class="cls-599" points="454.45 695.19 482.35 729.93 496.27 697.57 454.45 695.19"/><polygon class="cls-600" points="496.27 697.57 514.08 744.62 482.35 729.93 496.27 697.57"/><polygon class="cls-601" points="496.27 697.57 564.04 758.7 514.08 744.62 496.27 697.57"/><polygon class="cls-602" points="496.27 697.57 600.58 738.77 564.04 758.7 496.27 697.57"/><polygon class="cls-603" points="564.04 758.7 600.58 738.77 635.83 789.31 564.04 758.7"/><polygon class="cls-604" points="600.58 738.77 639.35 754.27 635.83 789.31 600.58 738.77"/><polygon class="cls-605" points="639.35 754.27 689.49 776.8 635.83 789.31 639.35 754.27"/><polygon class="cls-464" points="639.35 754.27 703.32 768.4 689.49 776.8 639.35 754.27"/><path class="cls-457" d="M689.49,776.8s26.77,16.21,26.37,15.6-12.54-24-12.54-24Z"/><polygon class="cls-473" points="703.32 768.4 758.5 779.45 715.86 792.41 703.32 768.4"/><polygon class="cls-606" points="635.83 789.31 689.49 776.8 715.86 792.41 635.83 789.31"/><polygon class="cls-607" points="635.83 789.31 645.45 838.8 653.14 839.36 635.83 789.31"/><polygon class="cls-512" points="635.83 789.31 653.14 839.36 715.86 792.41 635.83 789.31"/><polygon class="cls-608" points="653.14 839.36 715.86 792.41 694.66 866.41 653.14 839.36"/><polygon class="cls-609" points="715.86 792.41 712.98 802.43 748.6 797.27 715.86 792.41"/><polygon class="cls-610" points="715.86 792.41 758.5 779.45 748.6 797.27 715.86 792.41"/><polygon class="cls-464" points="758.5 779.45 748.6 797.27 795.14 784.87 758.5 779.45"/><polygon class="cls-611" points="795.14 784.87 748.6 797.27 783.09 809.29 795.14 784.87"/><path class="cls-482" d="M795.14,784.87l-12.05,24.42s28.73,7.72,28.63,7.31S795.14,784.87,795.14,784.87Z"/><path class="cls-483" d="M795.14,784.87l16.58,31.73s26.08-25.36,25.78-25.46S795.14,784.87,795.14,784.87Z"/><path class="cls-612" d="M837.5,791.14c-1.83,2.14-25.78,25.46-25.78,25.46l91.21,16.84Z"/><path class="cls-613" d="M837.5,791.14S903,834,902.92,833.45s-25-36.69-25-36.69Z"/><polygon class="cls-483" points="877.91 796.76 928.74 804.28 902.92 833.45 877.91 796.76"/><path class="cls-614" d="M928.74,804.28c1.08,0,27.12,1,27.12,1l-21.38,18.19Z"/><path class="cls-615" d="M928.74,804.28,913.07,822s21.16,1.48,21.41,1.53Z"/><path class="cls-616" d="M913.07,822l-10.14,11.46s28.21,2.94,27.53,2.67Z"/><polygon class="cls-617" points="913.07 821.99 930.46 836.11 934.48 823.51 913.07 821.99"/><polygon class="cls-618" points="934.48 823.51 967.2 837.76 930.46 836.11 934.48 823.51"/><polygon class="cls-619" points="934.48 823.51 955.86 805.32 973.48 826.98 934.48 823.51"/><polygon class="cls-620" points="934.48 823.51 972.24 826.87 967.2 837.76 934.48 823.51"/><polygon class="cls-621" points="955.86 805.32 977.23 810.7 973.48 826.98 955.86 805.32"/><polygon class="cls-622" points="974.81 803.29 985.16 836.34 972.24 826.87 974.81 803.29"/><polygon class="cls-623" points="974.81 803.29 985.16 836.34 1022.9 819.26 974.81 803.29"/><path class="cls-624" d="M974.81,803.29l48.09,16s-3.37-11.34-4.32-11.34S974.81,803.29,974.81,803.29Z"/><polygon class="cls-625" points="985.16 836.34 1026.31 824.33 1022.9 819.26 985.16 836.34"/><polygon class="cls-626" points="1018.59 807.92 1022.9 819.26 1066.04 800.67 1018.59 807.92"/><path class="cls-627" d="M1022.9,819.26l3.41,5.06s79-34.1,78.44-34S1022.9,819.26,1022.9,819.26Z"/><polygon class="cls-628" points="1022.9 819.26 1104.75 790.36 1066.04 800.67 1022.9 819.26"/><polygon class="cls-629" points="645.45 838.8 616.8 900.39 694.66 866.41 645.45 838.8"/><polygon class="cls-630" points="653.14 839.36 645.45 838.8 694.66 866.41 653.14 839.36"/><polygon class="cls-631" points="702.56 839.36 701.2 892.93 694.66 866.41 702.56 839.36"/><polygon class="cls-632" points="672.13 876.24 616.8 900.39 623.8 903.66 672.13 876.24"/><polygon class="cls-633" points="632.66 898.55 623.8 903.66 645.19 913 632.66 898.55"/><polygon class="cls-634" points="672.13 876.24 694.66 866.41 696.72 916.3 672.13 876.24"/><polygon class="cls-635" points="694.66 866.41 701.2 892.93 696.72 916.3 694.66 866.41"/><polygon class="cls-636" points="401.54 808.62 380 844.68 425.23 837.23 401.54 808.62"/><polygon class="cls-637" points="380 844.68 425.23 837.23 422.96 879.38 380 844.68"/><polygon class="cls-638" points="380 844.68 363.88 886.12 422.96 879.38 380 844.68"/><polygon class="cls-639" points="380 844.68 351.78 877.51 363.88 886.12 380 844.68"/><polyline class="cls-640" points="365.02 457.64 409.14 483.84 374.02 468.4"/><polygon class="cls-641" points="59.74 145.48 65.5 158.81 72.55 146.42 59.74 145.48"/><polygon class="cls-642" points="72.55 146.42 83.73 139.73 84.97 148.53 72.55 146.42"/><polygon class="cls-643" points="65.5 158.81 118.94 129.74 93.84 163.01 65.5 158.81"/><polygon class="cls-644" points="93.84 163.01 128.99 147.21 139.66 167.9 93.84 163.01"/><polygon class="cls-645" points="14.57 162.75 15.1 186.73 25.35 179.03 14.57 162.75"/><polygon class="cls-646" points="37.43 172.36 39.84 183.63 48.47 171.35 37.43 172.36"/><polygon class="cls-647" points="5.85 187.95 8.86 185.06 12.57 195.11 5.85 187.95"/><polygon class="cls-648" points="19.7 196.7 26.61 192.48 23.85 196.63 19.7 196.7"/><polygon class="cls-82" points="29.26 195.41 37.78 188.6 33.23 193.46 29.26 195.41"/><polygon class="cls-649" points="18.33 207 21.89 201.47 29.79 206.83 18.33 207"/><polygon class="cls-650" points="101.14 198.48 139.66 167.9 122.52 229.75 101.14 198.48"/><polygon class="cls-651" points="148.93 121.41 144.16 140.39 159.02 121.46 148.93 121.41"/><polygon class="cls-652" points="173.31 49.99 156.46 78.71 172.6 83.72 173.31 49.99"/><polygon class="cls-653" points="124.48 289.22 121.89 313.49 133.11 313.99 124.48 289.22"/><polygon class="cls-654" points="248.37 74.09 254.35 87 257.37 73.53 248.37 74.09"/><polygon class="cls-655" points="583.9 248.22 630.61 325.67 658.22 328.3 583.9 248.22"/><line class="cls-656" x1="331.33" y1="558.86" x2="342.4" y2="561.86"/><polygon class="cls-657" points="397.92 618.26 388.69 610.31 395.7 605.41 397.92 618.26"/><polygon class="cls-472" points="497.94 698.23 559.05 717.22 639.35 754.27 497.94 698.23"/><polygon class="cls-457" points="600.12 738.72 604.13 744.56 639.35 754.27 600.12 738.72"/><polygon class="cls-540" points="850.05 513.36 867.59 605.37 920.12 603.02 850.05 513.36"/><polygon class="cls-281" points="867.59 605.37 814.65 672.57 920.12 603.02 867.59 605.37"/><polygon class="cls-658" points="819.52 710.33 920.12 603.02 924.17 633.77 819.52 710.33"/><polygon class="cls-539" points="819.52 710.33 787.56 746.53 837.5 791.14 819.52 710.33"/><polygon class="cls-473" points="604.13 744.56 689.49 776.8 639.35 754.27 604.13 744.56"/><polygon class="cls-659" points="430.3 783.12 447.1 771.89 440.67 726.25 430.3 783.12"/><polygon class="cls-480" points="502.7 433.3 464.92 499.61 516.8 421.69 502.7 433.3"/></g></g></svg>